<svg xmlns="http://www.w3.org/2000/svg" viewBox="0 0 64 64" role="img" aria-label="VireoKit">
  <defs>
    <linearGradient id="vk-grad" x1="0" y1="0" x2="1" y2="1">
      <stop offset="0" stop-color="#14b8a6"/>
      <stop offset="1" stop-color="#2988ee"/>
    </linearGradient>
  </defs>
  <rect width="64" height="64" rx="16" fill="url(#vk-grad)"/>
  <!-- tail -->
  <path fill="#ffffff" d="M25 43 L11 49 L23 38 Z"/>
  <!-- body -->
  <path fill="#ffffff" d="M22 45c-5-6-4-17 4-22 7-4 17-3 21 4 3 6 2 13-4 17-6 4-15 5-21 1z"/>
  <!-- wing -->
  <path fill="#bfeee7" d="M27 33c6 0 12 3 15 8-7 1-13-1-16-5z"/>
  <!-- beak -->
  <path fill="#fbbf24" d="M47 28 L58 30 L47 33 Z"/>
  <!-- eye -->
  <circle cx="43" cy="29" r="2.4" fill="#0f172a"/>
</svg>
